<svg xmlns="http://www.w3.org/2000/svg" xmlns:xlink="http://www.w3.org/1999/xlink" width="1024" zoomAndPan="magnify" viewBox="0 0 750 749.999994" height="1024" preserveAspectRatio="xMidYMid meet" version="1.0"><defs><g/><clipPath id="69a7c1e81b"><rect x="0" width="381" y="0" height="277"/></clipPath><clipPath id="6bbc1aa2db"><path d="M 1 101 L 266.921875 101 L 266.921875 385 L 1 385 Z M 1 101 " clip-rule="nonzero"/></clipPath><clipPath id="8b4c41802e"><rect x="0" width="267" y="0" height="499"/></clipPath><clipPath id="b7f0ce4983"><rect x="0" width="429" y="0" height="403"/></clipPath><clipPath id="03a7c805bf"><rect x="0" width="381" y="0" height="277"/></clipPath><clipPath id="1073786441"><path d="M 0.199219 101 L 266 101 L 266 385 L 0.199219 385 Z M 0.199219 101 " clip-rule="nonzero"/></clipPath><clipPath id="02c56d49a7"><rect x="0" width="267" y="0" height="499"/></clipPath><clipPath id="8f8b0c2f76"><rect x="0" width="429" y="0" height="403"/></clipPath></defs><g transform="matrix(1, 0, 0, 1, 326, 401)"><g clip-path="url(#69a7c1e81b)"><g fill="#e35df4" fill-opacity="1"><g transform="translate(0.867243, 208.734655)"><g><path d="M 49.65625 2.21875 C 41.53125 2.21875 34.175781 0.1875 27.59375 -3.875 C 21.019531 -7.9375 15.8125 -13.367188 11.96875 -20.171875 C 8.125 -26.972656 6.203125 -34.582031 6.203125 -43 L 6.421875 -112.171875 C 6.421875 -120.296875 8.304688 -127.722656 12.078125 -134.453125 C 15.847656 -141.179688 21.019531 -146.578125 27.59375 -150.640625 C 34.175781 -154.703125 41.53125 -156.734375 49.65625 -156.734375 C 57.78125 -156.734375 65.09375 -154.738281 71.59375 -150.75 C 78.101562 -146.757812 83.28125 -141.398438 87.125 -134.671875 C 90.96875 -127.953125 92.890625 -120.453125 92.890625 -112.171875 L 92.890625 -101.96875 C 92.890625 -101.382812 92.59375 -101.09375 92 -101.09375 L 67.171875 -101.09375 C 66.578125 -101.09375 66.28125 -101.382812 66.28125 -101.96875 L 66.28125 -112.171875 C 66.28125 -117.046875 64.691406 -121.253906 61.515625 -124.796875 C 58.335938 -128.347656 54.382812 -130.125 49.65625 -130.125 C 44.332031 -130.125 40.265625 -128.3125 37.453125 -124.6875 C 34.648438 -121.070312 33.25 -116.898438 33.25 -112.171875 L 33.25 -43 C 33.25 -37.539062 34.835938 -33.109375 38.015625 -29.703125 C 41.191406 -26.304688 45.070312 -24.609375 49.65625 -24.609375 C 54.382812 -24.609375 58.335938 -26.488281 61.515625 -30.25 C 64.691406 -34.019531 66.28125 -38.269531 66.28125 -43 L 66.28125 -53.203125 C 66.28125 -53.796875 66.578125 -54.09375 67.171875 -54.09375 L 92.21875 -54.09375 C 92.8125 -54.09375 93.109375 -53.796875 93.109375 -53.203125 L 93.109375 -43 C 93.109375 -34.582031 91.148438 -26.972656 87.234375 -20.171875 C 83.316406 -13.367188 78.101562 -7.9375 71.59375 -3.875 C 65.09375 0.1875 57.78125 2.21875 49.65625 2.21875 Z M 49.65625 2.21875 "/></g></g></g><g fill="#e35df4" fill-opacity="1"><g transform="translate(101.287337, 208.734655)"><g><path d="M 9.75 0 C 9.164062 0 8.875 -0.367188 8.875 -1.109375 L 9.09375 -153.40625 C 9.09375 -154 9.460938 -154.296875 10.203125 -154.296875 L 34.8125 -154.296875 C 35.539062 -154.296875 35.90625 -154 35.90625 -153.40625 L 35.6875 -93.109375 L 68.9375 -93.109375 L 68.9375 -153.40625 C 68.9375 -154 69.234375 -154.296875 69.828125 -154.296875 L 94.4375 -154.296875 C 95.175781 -154.296875 95.546875 -154 95.546875 -153.40625 L 95.984375 -1.109375 C 95.984375 -0.367188 95.613281 0 94.875 0 L 70.046875 0 C 69.304688 0 68.9375 -0.367188 68.9375 -1.109375 L 68.9375 -66.28125 L 35.6875 -66.28125 L 35.6875 -1.109375 C 35.6875 -0.367188 35.394531 0 34.8125 0 Z M 9.75 0 "/></g></g></g><g fill="#e35df4" fill-opacity="1"><g transform="translate(206.584336, 208.734655)"><g><path d="M 1.328125 -1.109375 L 28.8125 -153.40625 C 28.96875 -154 29.335938 -154.296875 29.921875 -154.296875 L 62.078125 -154.296875 C 62.660156 -154.296875 63.03125 -154 63.1875 -153.40625 L 89.5625 -1.109375 C 89.707031 -0.367188 89.410156 0 88.671875 0 L 64.0625 0 C 63.476562 0 63.109375 -0.367188 62.953125 -1.109375 L 60.515625 -17.296875 L 30.375 -17.296875 L 27.9375 -1.109375 C 27.789062 -0.367188 27.421875 0 26.828125 0 L 2.21875 0 C 1.625 0 1.328125 -0.367188 1.328125 -1.109375 Z M 34.8125 -41.015625 L 56.09375 -41.015625 L 47 -103.3125 L 45.671875 -111.515625 L 44.78125 -103.3125 Z M 34.8125 -41.015625 "/></g></g></g><g fill="#e35df4" fill-opacity="1"><g transform="translate(290.599608, 208.734655)"><g><path d="M 31.03125 0 C 30.445312 0 30.15625 -0.367188 30.15625 -1.109375 L 30.15625 -127.46875 L 1.328125 -127.46875 C 0.585938 -127.46875 0.21875 -127.835938 0.21875 -128.578125 L 0.4375 -153.40625 C 0.4375 -154 0.734375 -154.296875 1.328125 -154.296875 L 85.578125 -154.296875 C 86.316406 -154.296875 86.6875 -154 86.6875 -153.40625 L 86.6875 -128.578125 C 86.6875 -127.835938 86.390625 -127.46875 85.796875 -127.46875 L 56.75 -127.46875 L 56.96875 -1.109375 C 56.96875 -0.367188 56.675781 0 56.09375 0 Z M 31.03125 0 "/></g></g></g></g></g><g transform="matrix(1, 0, 0, 1, 53, 66)"><g clip-path="url(#8b4c41802e)"><g clip-path="url(#6bbc1aa2db)"><g fill="#f394ff" fill-opacity="1"><g transform="translate(12.153196, 381.292476)"><g><path d="M 241.390625 -263.984375 C 241.390625 -249.660156 213.375 -208.4375 157.34375 -140.3125 C 159.8125 -127.238281 162.15625 -114.710938 164.375 -102.734375 C 166.601562 -90.765625 169.070312 -80.273438 171.78125 -71.265625 C 174.5 -62.253906 177.644531 -55.035156 181.21875 -49.609375 C 184.800781 -44.179688 188.8125 -41.46875 193.25 -41.46875 C 197.695312 -41.46875 202.632812 -43.8125 208.0625 -48.5 C 213.5 -53.1875 218.929688 -58.304688 224.359375 -63.859375 C 229.785156 -69.421875 234.78125 -74.546875 239.34375 -79.234375 C 243.914062 -83.921875 247.066406 -86.265625 248.796875 -86.265625 C 252.253906 -86.265625 253.984375 -82.066406 253.984375 -73.671875 C 253.984375 -56.640625 245.21875 -39.914062 227.6875 -23.5 C 210.164062 -7.09375 191.65625 1.109375 172.15625 1.109375 C 151.664062 1.109375 135.5 -16.660156 123.65625 -52.203125 C 120.195312 -62.816406 116.863281 -74.046875 113.65625 -85.890625 C 106.5 -76.515625 98.847656 -66.582031 90.703125 -56.09375 C 82.554688 -45.601562 73.796875 -35.914062 64.421875 -27.03125 C 43.191406 -6.539062 23.691406 3.703125 5.921875 3.703125 C 0.492188 3.703125 -3.695312 2.835938 -6.65625 1.109375 C -9.625 -0.617188 -11.109375 -2.285156 -11.109375 -3.890625 C -11.109375 -5.492188 -10.117188 -7.035156 -8.140625 -8.515625 C -6.171875 -9.992188 -0.988281 -14.5625 7.40625 -22.21875 C 43.9375 -55.78125 75.898438 -92.554688 103.296875 -132.546875 C 98.609375 -156.242188 94.164062 -176.601562 89.96875 -193.625 C 82.8125 -191.65625 75.28125 -190.671875 67.375 -190.671875 C 49.363281 -190.671875 35.050781 -193.753906 24.4375 -199.921875 C 10.863281 -207.578125 4.078125 -218.5625 4.078125 -232.875 C 4.078125 -247.1875 8.640625 -258.660156 17.765625 -267.296875 C 26.898438 -275.941406 38.316406 -280.265625 52.015625 -280.265625 C 65.710938 -280.265625 77.25 -277.976562 86.625 -273.40625 C 96.007812 -268.84375 104.40625 -262.613281 111.8125 -254.71875 C 124.394531 -241.394531 135.007812 -221.40625 143.65625 -194.75 C 148.34375 -202.394531 153.335938 -210.351562 158.640625 -218.625 C 163.953125 -226.894531 168.890625 -234.726562 173.453125 -242.125 C 178.015625 -249.53125 182.144531 -256.070312 185.84375 -261.75 C 189.550781 -267.425781 192.332031 -271.679688 194.1875 -274.515625 C 196.039062 -277.359375 198.691406 -278.90625 202.140625 -279.15625 C 210.046875 -279.40625 218.5625 -278.109375 227.6875 -275.265625 C 236.820312 -272.429688 241.390625 -268.671875 241.390625 -263.984375 Z M 58.125 -247.6875 C 53.6875 -247.6875 51.46875 -244.660156 51.46875 -238.609375 C 51.46875 -232.566406 54.488281 -227.078125 60.53125 -222.140625 C 66.582031 -217.203125 74.664062 -213.75 84.78125 -211.78125 C 77.132812 -235.71875 68.25 -247.6875 58.125 -247.6875 Z M 58.125 -247.6875 "/></g></g></g></g></g></g><g transform="matrix(1, 0, 0, 1, 286, 142)"><g clip-path="url(#b7f0ce4983)"><g fill="#f394ff" fill-opacity="1"><g transform="translate(3.512703, 304.207959)"><g><path d="M 43 0 C 42.351562 0 42.03125 -0.429688 42.03125 -1.296875 L 42.359375 -93.109375 L -0.96875 -223.71875 C -1.1875 -224.582031 -0.863281 -225.015625 0 -225.015625 L 35.890625 -225.015625 C 36.960938 -225.015625 37.609375 -224.582031 37.828125 -223.71875 L 61.75 -136.75 L 86 -223.71875 C 86.207031 -224.582031 86.742188 -225.015625 87.609375 -225.015625 L 123.828125 -225.015625 C 124.679688 -225.015625 125.003906 -224.582031 124.796875 -223.71875 L 81.140625 -94.40625 L 81.46875 -1.296875 C 81.46875 -0.429688 81.035156 0 80.171875 0 Z M 43 0 "/></g></g></g><g fill="#f394ff" fill-opacity="1"><g transform="translate(133.146766, 304.207959)"><g><path d="M 14.21875 0 C 13.363281 0 12.9375 -0.535156 12.9375 -1.609375 L 13.578125 -223.71875 C 13.578125 -224.582031 14.007812 -225.015625 14.875 -225.015625 L 80.171875 -225.015625 C 91.816406 -225.015625 102.539062 -222.15625 112.34375 -216.4375 C 122.15625 -210.726562 129.96875 -203.078125 135.78125 -193.484375 C 141.601562 -183.898438 144.515625 -173.070312 144.515625 -161 C 144.515625 -153.03125 143.328125 -145.863281 140.953125 -139.5 C 138.585938 -133.144531 135.785156 -127.753906 132.546875 -123.328125 C 129.316406 -118.910156 126.410156 -115.628906 123.828125 -113.484375 C 135.460938 -100.546875 141.28125 -85.347656 141.28125 -67.890625 L 141.609375 -1.609375 C 141.609375 -0.535156 141.066406 0 139.984375 0 L 103.453125 0 C 102.585938 0 102.15625 -0.320312 102.15625 -0.96875 L 102.15625 -67.890625 C 102.15625 -75.648438 99.40625 -82.382812 93.90625 -88.09375 C 88.414062 -93.8125 81.6875 -96.671875 73.71875 -96.671875 L 52.375 -96.671875 L 52.046875 -1.609375 C 52.046875 -0.535156 51.613281 0 50.75 0 Z M 52.375 -135.46875 L 80.171875 -135.46875 C 86.859375 -135.46875 92.785156 -137.941406 97.953125 -142.890625 C 103.128906 -147.847656 105.71875 -153.882812 105.71875 -161 C 105.71875 -167.894531 103.179688 -173.820312 98.109375 -178.78125 C 93.046875 -183.738281 87.066406 -186.21875 80.171875 -186.21875 L 52.375 -186.21875 Z M 52.375 -135.46875 "/></g></g></g><g fill="#f394ff" fill-opacity="1"><g transform="translate(288.966236, 304.207959)"><g><path d="M 1.9375 -1.609375 L 42.03125 -223.71875 C 42.25 -224.582031 42.785156 -225.015625 43.640625 -225.015625 L 90.515625 -225.015625 C 91.378906 -225.015625 91.921875 -224.582031 92.140625 -223.71875 L 130.609375 -1.609375 C 130.828125 -0.535156 130.394531 0 129.3125 0 L 93.4375 0 C 92.570312 0 92.03125 -0.535156 91.8125 -1.609375 L 88.265625 -25.21875 L 44.296875 -25.21875 L 40.734375 -1.609375 C 40.515625 -0.535156 39.976562 0 39.125 0 L 3.234375 0 C 2.367188 0 1.9375 -0.535156 1.9375 -1.609375 Z M 50.75 -59.8125 L 81.796875 -59.8125 L 68.53125 -150.65625 L 66.59375 -162.625 L 65.3125 -150.65625 Z M 50.75 -59.8125 "/></g></g></g></g></g><g transform="matrix(1, 0, 0, 1, 318, 402)"><g clip-path="url(#03a7c805bf)"><g fill="#f394ff" fill-opacity="1"><g transform="translate(0.489333, 208.840963)"><g><path d="M 49.65625 2.21875 C 41.53125 2.21875 34.175781 0.1875 27.59375 -3.875 C 21.019531 -7.9375 15.8125 -13.367188 11.96875 -20.171875 C 8.125 -26.972656 6.203125 -34.582031 6.203125 -43 L 6.421875 -112.171875 C 6.421875 -120.296875 8.304688 -127.722656 12.078125 -134.453125 C 15.847656 -141.179688 21.019531 -146.578125 27.59375 -150.640625 C 34.175781 -154.703125 41.53125 -156.734375 49.65625 -156.734375 C 57.78125 -156.734375 65.09375 -154.738281 71.59375 -150.75 C 78.101562 -146.757812 83.28125 -141.398438 87.125 -134.671875 C 90.96875 -127.953125 92.890625 -120.453125 92.890625 -112.171875 L 92.890625 -101.96875 C 92.890625 -101.382812 92.59375 -101.09375 92 -101.09375 L 67.171875 -101.09375 C 66.578125 -101.09375 66.28125 -101.382812 66.28125 -101.96875 L 66.28125 -112.171875 C 66.28125 -117.046875 64.691406 -121.253906 61.515625 -124.796875 C 58.335938 -128.347656 54.382812 -130.125 49.65625 -130.125 C 44.332031 -130.125 40.265625 -128.3125 37.453125 -124.6875 C 34.648438 -121.070312 33.25 -116.898438 33.25 -112.171875 L 33.25 -43 C 33.25 -37.539062 34.835938 -33.109375 38.015625 -29.703125 C 41.191406 -26.304688 45.070312 -24.609375 49.65625 -24.609375 C 54.382812 -24.609375 58.335938 -26.488281 61.515625 -30.25 C 64.691406 -34.019531 66.28125 -38.269531 66.28125 -43 L 66.28125 -53.203125 C 66.28125 -53.796875 66.578125 -54.09375 67.171875 -54.09375 L 92.21875 -54.09375 C 92.8125 -54.09375 93.109375 -53.796875 93.109375 -53.203125 L 93.109375 -43 C 93.109375 -34.582031 91.148438 -26.972656 87.234375 -20.171875 C 83.316406 -13.367188 78.101562 -7.9375 71.59375 -3.875 C 65.09375 0.1875 57.78125 2.21875 49.65625 2.21875 Z M 49.65625 2.21875 "/></g></g></g><g fill="#f394ff" fill-opacity="1"><g transform="translate(100.909427, 208.840963)"><g><path d="M 9.75 0 C 9.164062 0 8.875 -0.367188 8.875 -1.109375 L 9.09375 -153.40625 C 9.09375 -154 9.460938 -154.296875 10.203125 -154.296875 L 34.8125 -154.296875 C 35.539062 -154.296875 35.90625 -154 35.90625 -153.40625 L 35.6875 -93.109375 L 68.9375 -93.109375 L 68.9375 -153.40625 C 68.9375 -154 69.234375 -154.296875 69.828125 -154.296875 L 94.4375 -154.296875 C 95.175781 -154.296875 95.546875 -154 95.546875 -153.40625 L 95.984375 -1.109375 C 95.984375 -0.367188 95.613281 0 94.875 0 L 70.046875 0 C 69.304688 0 68.9375 -0.367188 68.9375 -1.109375 L 68.9375 -66.28125 L 35.6875 -66.28125 L 35.6875 -1.109375 C 35.6875 -0.367188 35.394531 0 34.8125 0 Z M 9.75 0 "/></g></g></g><g fill="#f394ff" fill-opacity="1"><g transform="translate(206.206426, 208.840963)"><g><path d="M 1.328125 -1.109375 L 28.8125 -153.40625 C 28.96875 -154 29.335938 -154.296875 29.921875 -154.296875 L 62.078125 -154.296875 C 62.660156 -154.296875 63.03125 -154 63.1875 -153.40625 L 89.5625 -1.109375 C 89.707031 -0.367188 89.410156 0 88.671875 0 L 64.0625 0 C 63.476562 0 63.109375 -0.367188 62.953125 -1.109375 L 60.515625 -17.296875 L 30.375 -17.296875 L 27.9375 -1.109375 C 27.789062 -0.367188 27.421875 0 26.828125 0 L 2.21875 0 C 1.625 0 1.328125 -0.367188 1.328125 -1.109375 Z M 34.8125 -41.015625 L 56.09375 -41.015625 L 47 -103.3125 L 45.671875 -111.515625 L 44.78125 -103.3125 Z M 34.8125 -41.015625 "/></g></g></g><g fill="#f394ff" fill-opacity="1"><g transform="translate(290.221698, 208.840963)"><g><path d="M 31.03125 0 C 30.445312 0 30.15625 -0.367188 30.15625 -1.109375 L 30.15625 -127.46875 L 1.328125 -127.46875 C 0.585938 -127.46875 0.21875 -127.835938 0.21875 -128.578125 L 0.4375 -153.40625 C 0.4375 -154 0.734375 -154.296875 1.328125 -154.296875 L 85.578125 -154.296875 C 86.316406 -154.296875 86.6875 -154 86.6875 -153.40625 L 86.6875 -128.578125 C 86.6875 -127.835938 86.390625 -127.46875 85.796875 -127.46875 L 56.75 -127.46875 L 56.96875 -1.109375 C 56.96875 -0.367188 56.675781 0 56.09375 0 Z M 31.03125 0 "/></g></g></g></g></g><g transform="matrix(1, 0, 0, 1, 43, 66)"><g clip-path="url(#02c56d49a7)"><g clip-path="url(#1073786441)"><g fill="#ffffff" fill-opacity="1"><g transform="translate(11.935768, 381.292476)"><g><path d="M 241.390625 -263.984375 C 241.390625 -249.660156 213.375 -208.4375 157.34375 -140.3125 C 159.8125 -127.238281 162.15625 -114.710938 164.375 -102.734375 C 166.601562 -90.765625 169.070312 -80.273438 171.78125 -71.265625 C 174.5 -62.253906 177.644531 -55.035156 181.21875 -49.609375 C 184.800781 -44.179688 188.8125 -41.46875 193.25 -41.46875 C 197.695312 -41.46875 202.632812 -43.8125 208.0625 -48.5 C 213.5 -53.1875 218.929688 -58.304688 224.359375 -63.859375 C 229.785156 -69.421875 234.78125 -74.546875 239.34375 -79.234375 C 243.914062 -83.921875 247.066406 -86.265625 248.796875 -86.265625 C 252.253906 -86.265625 253.984375 -82.066406 253.984375 -73.671875 C 253.984375 -56.640625 245.21875 -39.914062 227.6875 -23.5 C 210.164062 -7.09375 191.65625 1.109375 172.15625 1.109375 C 151.664062 1.109375 135.5 -16.660156 123.65625 -52.203125 C 120.195312 -62.816406 116.863281 -74.046875 113.65625 -85.890625 C 106.5 -76.515625 98.847656 -66.582031 90.703125 -56.09375 C 82.554688 -45.601562 73.796875 -35.914062 64.421875 -27.03125 C 43.191406 -6.539062 23.691406 3.703125 5.921875 3.703125 C 0.492188 3.703125 -3.695312 2.835938 -6.65625 1.109375 C -9.625 -0.617188 -11.109375 -2.285156 -11.109375 -3.890625 C -11.109375 -5.492188 -10.117188 -7.035156 -8.140625 -8.515625 C -6.171875 -9.992188 -0.988281 -14.5625 7.40625 -22.21875 C 43.9375 -55.78125 75.898438 -92.554688 103.296875 -132.546875 C 98.609375 -156.242188 94.164062 -176.601562 89.96875 -193.625 C 82.8125 -191.65625 75.28125 -190.671875 67.375 -190.671875 C 49.363281 -190.671875 35.050781 -193.753906 24.4375 -199.921875 C 10.863281 -207.578125 4.078125 -218.5625 4.078125 -232.875 C 4.078125 -247.1875 8.640625 -258.660156 17.765625 -267.296875 C 26.898438 -275.941406 38.316406 -280.265625 52.015625 -280.265625 C 65.710938 -280.265625 77.25 -277.976562 86.625 -273.40625 C 96.007812 -268.84375 104.40625 -262.613281 111.8125 -254.71875 C 124.394531 -241.394531 135.007812 -221.40625 143.65625 -194.75 C 148.34375 -202.394531 153.335938 -210.351562 158.640625 -218.625 C 163.953125 -226.894531 168.890625 -234.726562 173.453125 -242.125 C 178.015625 -249.53125 182.144531 -256.070312 185.84375 -261.75 C 189.550781 -267.425781 192.332031 -271.679688 194.1875 -274.515625 C 196.039062 -277.359375 198.691406 -278.90625 202.140625 -279.15625 C 210.046875 -279.40625 218.5625 -278.109375 227.6875 -275.265625 C 236.820312 -272.429688 241.390625 -268.671875 241.390625 -263.984375 Z M 58.125 -247.6875 C 53.6875 -247.6875 51.46875 -244.660156 51.46875 -238.609375 C 51.46875 -232.566406 54.488281 -227.078125 60.53125 -222.140625 C 66.582031 -217.203125 74.664062 -213.75 84.78125 -211.78125 C 77.132812 -235.71875 68.25 -247.6875 58.125 -247.6875 Z M 58.125 -247.6875 "/></g></g></g></g></g></g><g transform="matrix(1, 0, 0, 1, 276, 142)"><g clip-path="url(#8f8b0c2f76)"><g fill="#ffffff" fill-opacity="1"><g transform="translate(3.295272, 304.207959)"><g><path d="M 43 0 C 42.351562 0 42.03125 -0.429688 42.03125 -1.296875 L 42.359375 -93.109375 L -0.96875 -223.71875 C -1.1875 -224.582031 -0.863281 -225.015625 0 -225.015625 L 35.890625 -225.015625 C 36.960938 -225.015625 37.609375 -224.582031 37.828125 -223.71875 L 61.75 -136.75 L 86 -223.71875 C 86.207031 -224.582031 86.742188 -225.015625 87.609375 -225.015625 L 123.828125 -225.015625 C 124.679688 -225.015625 125.003906 -224.582031 124.796875 -223.71875 L 81.140625 -94.40625 L 81.46875 -1.296875 C 81.46875 -0.429688 81.035156 0 80.171875 0 Z M 43 0 "/></g></g></g><g fill="#ffffff" fill-opacity="1"><g transform="translate(132.929335, 304.207959)"><g><path d="M 14.21875 0 C 13.363281 0 12.9375 -0.535156 12.9375 -1.609375 L 13.578125 -223.71875 C 13.578125 -224.582031 14.007812 -225.015625 14.875 -225.015625 L 80.171875 -225.015625 C 91.816406 -225.015625 102.539062 -222.15625 112.34375 -216.4375 C 122.15625 -210.726562 129.96875 -203.078125 135.78125 -193.484375 C 141.601562 -183.898438 144.515625 -173.070312 144.515625 -161 C 144.515625 -153.03125 143.328125 -145.863281 140.953125 -139.5 C 138.585938 -133.144531 135.785156 -127.753906 132.546875 -123.328125 C 129.316406 -118.910156 126.410156 -115.628906 123.828125 -113.484375 C 135.460938 -100.546875 141.28125 -85.347656 141.28125 -67.890625 L 141.609375 -1.609375 C 141.609375 -0.535156 141.066406 0 139.984375 0 L 103.453125 0 C 102.585938 0 102.15625 -0.320312 102.15625 -0.96875 L 102.15625 -67.890625 C 102.15625 -75.648438 99.40625 -82.382812 93.90625 -88.09375 C 88.414062 -93.8125 81.6875 -96.671875 73.71875 -96.671875 L 52.375 -96.671875 L 52.046875 -1.609375 C 52.046875 -0.535156 51.613281 0 50.75 0 Z M 52.375 -135.46875 L 80.171875 -135.46875 C 86.859375 -135.46875 92.785156 -137.941406 97.953125 -142.890625 C 103.128906 -147.847656 105.71875 -153.882812 105.71875 -161 C 105.71875 -167.894531 103.179688 -173.820312 98.109375 -178.78125 C 93.046875 -183.738281 87.066406 -186.21875 80.171875 -186.21875 L 52.375 -186.21875 Z M 52.375 -135.46875 "/></g></g></g><g fill="#ffffff" fill-opacity="1"><g transform="translate(288.748805, 304.207959)"><g><path d="M 1.9375 -1.609375 L 42.03125 -223.71875 C 42.25 -224.582031 42.785156 -225.015625 43.640625 -225.015625 L 90.515625 -225.015625 C 91.378906 -225.015625 91.921875 -224.582031 92.140625 -223.71875 L 130.609375 -1.609375 C 130.828125 -0.535156 130.394531 0 129.3125 0 L 93.4375 0 C 92.570312 0 92.03125 -0.535156 91.8125 -1.609375 L 88.265625 -25.21875 L 44.296875 -25.21875 L 40.734375 -1.609375 C 40.515625 -0.535156 39.976562 0 39.125 0 L 3.234375 0 C 2.367188 0 1.9375 -0.535156 1.9375 -1.609375 Z M 50.75 -59.8125 L 81.796875 -59.8125 L 68.53125 -150.65625 L 66.59375 -162.625 L 65.3125 -150.65625 Z M 50.75 -59.8125 "/></g></g></g></g></g></svg>