<svg xmlns="http://www.w3.org/2000/svg" xmlns:xlink="http://www.w3.org/1999/xlink" width="1024" zoomAndPan="magnify" viewBox="0 0 750 749.999994" height="1024" preserveAspectRatio="xMidYMid meet" version="1.0"><defs><g/><clipPath id="3a292d2453"><rect x="0" width="560" y="0" height="750"/></clipPath><clipPath id="468509c0cc"><rect x="0" width="560" y="0" height="750"/></clipPath></defs><g transform="matrix(1, 0, 0, 1, 140, -0.000000000000061101)"><g clip-path="url(#3a292d2453)"><g fill="#f394ff" fill-opacity="1"><g transform="translate(25.246323, 672.932228)"><g><path d="M 506.484375 -553.875 C 506.484375 -523.84375 447.707031 -437.359375 330.15625 -294.421875 C 335.332031 -266.972656 340.25 -240.6875 344.90625 -215.5625 C 349.570312 -190.445312 354.753906 -168.4375 360.453125 -149.53125 C 366.148438 -130.632812 372.75 -115.488281 380.25 -104.09375 C 387.757812 -92.695312 396.175781 -87 405.5 -87 C 414.820312 -87 425.179688 -91.921875 436.578125 -101.765625 C 447.972656 -111.609375 459.363281 -122.351562 470.75 -134 C 482.144531 -145.65625 492.632812 -156.398438 502.21875 -166.234375 C 511.800781 -176.078125 518.40625 -181 522.03125 -181 C 529.28125 -181 532.90625 -172.195312 532.90625 -154.59375 C 532.90625 -118.851562 514.519531 -83.765625 477.75 -49.328125 C 440.976562 -14.890625 402.132812 2.328125 361.21875 2.328125 C 318.238281 2.328125 284.316406 -34.957031 259.453125 -109.53125 C 252.203125 -131.800781 245.210938 -155.363281 238.484375 -180.21875 C 223.460938 -160.539062 207.40625 -139.695312 190.3125 -117.6875 C 173.226562 -95.675781 154.847656 -75.347656 135.171875 -56.703125 C 90.628906 -13.722656 49.710938 7.765625 12.421875 7.765625 C 1.035156 7.765625 -7.765625 5.953125 -13.984375 2.328125 C -20.203125 -1.296875 -23.3125 -4.789062 -23.3125 -8.15625 C -23.3125 -11.519531 -21.238281 -14.753906 -17.09375 -17.859375 C -12.945312 -20.972656 -2.070312 -30.554688 15.53125 -46.609375 C 92.175781 -117.046875 159.242188 -194.210938 216.734375 -278.109375 C 206.890625 -327.828125 197.566406 -370.550781 188.765625 -406.28125 C 173.742188 -402.132812 157.945312 -400.0625 141.375 -400.0625 C 103.570312 -400.0625 73.535156 -406.535156 51.265625 -419.484375 C 22.785156 -435.535156 8.546875 -458.582031 8.546875 -488.625 C 8.546875 -518.664062 18.125 -542.75 37.28125 -560.875 C 56.445312 -579 80.398438 -588.0625 109.140625 -588.0625 C 137.890625 -588.0625 162.101562 -583.269531 181.78125 -573.6875 C 201.457031 -564.101562 219.066406 -551.023438 234.609375 -534.453125 C 261.015625 -506.492188 283.28125 -464.546875 301.40625 -408.609375 C 311.25 -424.660156 321.738281 -441.359375 332.875 -458.703125 C 344.007812 -476.054688 354.363281 -492.5 363.9375 -508.03125 C 373.519531 -523.570312 382.195312 -537.296875 389.96875 -549.203125 C 397.738281 -561.117188 403.5625 -570.054688 407.4375 -576.015625 C 411.320312 -581.972656 416.890625 -585.210938 424.140625 -585.734375 C 440.710938 -586.242188 458.578125 -583.519531 477.734375 -577.5625 C 496.898438 -571.613281 506.484375 -563.71875 506.484375 -553.875 Z M 121.96875 -519.703125 C 112.644531 -519.703125 107.984375 -513.359375 107.984375 -500.671875 C 107.984375 -487.984375 114.328125 -476.457031 127.015625 -466.09375 C 139.703125 -455.738281 156.660156 -448.488281 177.890625 -444.34375 C 161.835938 -494.582031 143.195312 -519.703125 121.96875 -519.703125 Z M 121.96875 -519.703125 "/></g></g></g></g></g><g transform="matrix(1, 0, 0, 1, 107, -0.000000000000061101)"><g clip-path="url(#468509c0cc)"><g fill="#ffffff" fill-opacity="1"><g transform="translate(24.993185, 672.932228)"><g><path d="M 506.484375 -553.875 C 506.484375 -523.84375 447.707031 -437.359375 330.15625 -294.421875 C 335.332031 -266.972656 340.25 -240.6875 344.90625 -215.5625 C 349.570312 -190.445312 354.753906 -168.4375 360.453125 -149.53125 C 366.148438 -130.632812 372.75 -115.488281 380.25 -104.09375 C 387.757812 -92.695312 396.175781 -87 405.5 -87 C 414.820312 -87 425.179688 -91.921875 436.578125 -101.765625 C 447.972656 -111.609375 459.363281 -122.351562 470.75 -134 C 482.144531 -145.65625 492.632812 -156.398438 502.21875 -166.234375 C 511.800781 -176.078125 518.40625 -181 522.03125 -181 C 529.28125 -181 532.90625 -172.195312 532.90625 -154.59375 C 532.90625 -118.851562 514.519531 -83.765625 477.75 -49.328125 C 440.976562 -14.890625 402.132812 2.328125 361.21875 2.328125 C 318.238281 2.328125 284.316406 -34.957031 259.453125 -109.53125 C 252.203125 -131.800781 245.210938 -155.363281 238.484375 -180.21875 C 223.460938 -160.539062 207.40625 -139.695312 190.3125 -117.6875 C 173.226562 -95.675781 154.847656 -75.347656 135.171875 -56.703125 C 90.628906 -13.722656 49.710938 7.765625 12.421875 7.765625 C 1.035156 7.765625 -7.765625 5.953125 -13.984375 2.328125 C -20.203125 -1.296875 -23.3125 -4.789062 -23.3125 -8.15625 C -23.3125 -11.519531 -21.238281 -14.753906 -17.09375 -17.859375 C -12.945312 -20.972656 -2.070312 -30.554688 15.53125 -46.609375 C 92.175781 -117.046875 159.242188 -194.210938 216.734375 -278.109375 C 206.890625 -327.828125 197.566406 -370.550781 188.765625 -406.28125 C 173.742188 -402.132812 157.945312 -400.0625 141.375 -400.0625 C 103.570312 -400.0625 73.535156 -406.535156 51.265625 -419.484375 C 22.785156 -435.535156 8.546875 -458.582031 8.546875 -488.625 C 8.546875 -518.664062 18.125 -542.75 37.28125 -560.875 C 56.445312 -579 80.398438 -588.0625 109.140625 -588.0625 C 137.890625 -588.0625 162.101562 -583.269531 181.78125 -573.6875 C 201.457031 -564.101562 219.066406 -551.023438 234.609375 -534.453125 C 261.015625 -506.492188 283.28125 -464.546875 301.40625 -408.609375 C 311.25 -424.660156 321.738281 -441.359375 332.875 -458.703125 C 344.007812 -476.054688 354.363281 -492.5 363.9375 -508.03125 C 373.519531 -523.570312 382.195312 -537.296875 389.96875 -549.203125 C 397.738281 -561.117188 403.5625 -570.054688 407.4375 -576.015625 C 411.320312 -581.972656 416.890625 -585.210938 424.140625 -585.734375 C 440.710938 -586.242188 458.578125 -583.519531 477.734375 -577.5625 C 496.898438 -571.613281 506.484375 -563.71875 506.484375 -553.875 Z M 121.96875 -519.703125 C 112.644531 -519.703125 107.984375 -513.359375 107.984375 -500.671875 C 107.984375 -487.984375 114.328125 -476.457031 127.015625 -466.09375 C 139.703125 -455.738281 156.660156 -448.488281 177.890625 -444.34375 C 161.835938 -494.582031 143.195312 -519.703125 121.96875 -519.703125 Z M 121.96875 -519.703125 "/></g></g></g></g></g></svg>